<svg width="4" height="16" viewBox="0 0 4 16" fill="none" xmlns="http://www.w3.org/2000/svg">
<path d="M1.75 2.5C1.55109 2.5 1.36032 2.42098 1.21967 2.28033C1.07902 2.13968 1 1.94891 1 1.75C1 1.55109 1.07902 1.36032 1.21967 1.21967C1.36032 1.07902 1.55109 1 1.75 1C1.94891 1 2.13968 1.07902 2.28033 1.21967C2.42098 1.36032 2.5 1.55109 2.5 1.75C2.5 1.94891 2.42098 2.13968 2.28033 2.28033C2.13968 2.42098 1.94891 2.5 1.75 2.5ZM1.75 8.5C1.55109 8.5 1.36032 8.42098 1.21967 8.28033C1.07902 8.13968 1 7.94891 1 7.75C1 7.55109 1.07902 7.36032 1.21967 7.21967C1.36032 7.07902 1.55109 7 1.75 7C1.94891 7 2.13968 7.07902 2.28033 7.21967C2.42098 7.36032 2.5 7.55109 2.5 7.75C2.5 7.94891 2.42098 8.13968 2.28033 8.28033C2.13968 8.42098 1.94891 8.5 1.75 8.5ZM1.75 14.5C1.55109 14.5 1.36032 14.421 1.21967 14.2803C1.07902 14.1397 1 13.9489 1 13.75C1 13.5511 1.07902 13.3603 1.21967 13.2197C1.36032 13.079 1.55109 13 1.75 13C1.94891 13 2.13968 13.079 2.28033 13.2197C2.42098 13.3603 2.5 13.5511 2.5 13.75C2.5 13.9489 2.42098 14.1397 2.28033 14.2803C2.13968 14.421 1.94891 14.5 1.75 14.5Z" stroke="#949494" stroke-width="1.5" stroke-linecap="round" stroke-linejoin="round"/>
</svg>
